<svg width="22" height="22" viewBox="0 0 22 22" fill="none" xmlns="http://www.w3.org/2000/svg">
<g id="&#208;&#191;&#208;&#190;&#209;&#136;&#209;&#131;&#208;&#186;">
<path id="calendar / calendar" d="M19.5556 22H2.44444C1.09441 22 0 21.015 0 19.8V4.4C0 3.18497 1.09441 2.2 2.44444 2.2H4.88889V0H7.33333V2.2H14.6667V0H17.1111V2.2H19.5556C20.9056 2.2 22 3.18497 22 4.4V19.8C22 21.015 20.9056 22 19.5556 22ZM2.44444 8.8V19.8H19.5556V8.8H2.44444ZM2.44444 4.4V6.6H19.5556V4.4H2.44444ZM17.1111 17.6H14.6667V15.4H17.1111V17.6ZM12.2222 17.6H9.77778V15.4H12.2222V17.6ZM7.33333 17.6H4.88889V15.4H7.33333V17.6ZM17.1111 13.2H14.6667V11H17.1111V13.2ZM12.2222 13.2H9.77778V11H12.2222V13.2ZM7.33333 13.2H4.88889V11H7.33333V13.2Z" fill="white"/>
</g>
</svg>
