<svg width="114" height="114" viewBox="0 0 114 114" fill="none" xmlns="http://www.w3.org/2000/svg">
<g id="Vector">
<path d="M57.034 22.8C75.9221 22.8 91.234 38.1119 91.234 57C91.234 75.8881 75.9221 91.2 57.034 91.2C38.1458 91.2 22.834 75.8881 22.834 57C22.834 38.1119 38.1458 22.8 57.034 22.8Z" fill="url(#paint0_radial_23_1060)"/>
<path d="M57 96.9C60.1481 96.9 62.7 99.4519 62.7 102.6V108.3C62.7 111.448 60.1481 114 57 114C53.8519 114 51.3 111.448 51.3 108.3V102.6C51.3 99.4519 53.8519 96.9 57 96.9ZM93.2748 85.2139L97.3053 89.2443C99.5311 91.4702 99.5311 95.0788 97.3053 97.3053C95.0794 99.5311 91.4702 99.5311 89.2443 97.3053L85.2139 93.2748C82.988 91.0484 82.988 87.4397 85.2139 85.2139C87.4397 82.9874 91.049 82.9874 93.2748 85.2139ZM20.7251 85.2139C22.9511 82.9874 26.5602 82.9874 28.7861 85.2139C30.8409 87.2685 30.9989 90.5019 29.2603 92.7378L28.7861 93.2748L24.7556 97.3053C22.5296 99.5311 18.9206 99.5311 16.6946 97.3053C14.6398 95.2506 14.4818 92.0173 16.2204 89.7813L16.6946 89.2443L20.7251 85.2139ZM11.4 51.3C14.548 51.3 17.1 53.8519 17.1 57C17.1 59.9232 14.8995 62.3324 12.0647 62.6617L11.4 62.7H5.7C2.552 62.7 0 60.1481 0 57C0 54.0768 2.20045 51.6676 5.03526 51.3383L5.7 51.3H11.4ZM108.3 51.3C111.448 51.3 114 53.8519 114 57C114 60.1481 111.448 62.7 108.3 62.7H102.6C99.4519 62.7 96.9 60.1481 96.9 57C96.9 53.8519 99.4519 51.3 102.6 51.3H108.3ZM16.6948 16.6946C18.7495 14.6399 21.9828 14.4818 24.2188 16.2204L24.7558 16.6946L28.7863 20.7251C31.0123 22.9511 31.0123 26.5602 28.7863 28.7861C26.7315 30.8409 23.4983 30.9989 21.2623 29.2603L20.7253 28.7861L16.6948 24.7556C14.4688 22.5296 14.4688 18.9206 16.6948 16.6946ZM97.3053 16.6947C99.5311 18.9207 99.5311 22.5298 97.3053 24.7557L93.2748 28.7863C91.0484 31.0122 87.4397 31.0122 85.2139 28.7863C82.9874 26.5602 82.9874 22.9512 85.2139 20.7252L89.2443 16.6947C91.4702 14.4687 95.0788 14.4687 97.3053 16.6947ZM57 0C60.1481 0 62.7 2.552 62.7 5.7V11.4C62.7 14.548 60.1481 17.1 57 17.1C53.8519 17.1 51.3 14.548 51.3 11.4V5.7C51.3 2.552 53.8519 0 57 0Z" fill="url(#paint1_linear_23_1060)"/>
</g>
<defs>
<radialGradient id="paint0_radial_23_1060" cx="0" cy="0" r="1" gradientUnits="userSpaceOnUse" gradientTransform="translate(17.4167 14.25) rotate(43.0203) scale(132.096)">
<stop offset="0.193671" stop-color="#FFE475"/>
<stop offset="0.529275" stop-color="#FFB029"/>
<stop offset="0.780467" stop-color="#FF9100"/>
</radialGradient>
<linearGradient id="paint1_linear_23_1060" x1="-0.712505" y1="-0.712498" x2="114.713" y2="114.713" gradientUnits="userSpaceOnUse">
<stop offset="0.166667" stop-color="#FFE475"/>
<stop offset="0.798611" stop-color="#FFBF29"/>
</linearGradient>
</defs>
</svg>
